<svg t="1614160487866" class="icon" viewBox="0 0 1024 1024" version="1.1" xmlns="http://www.w3.org/2000/svg" p-id="569" ><path d="M361.856 214.016l237.952 594.048h-55.744l-69.056-177.28H188.8l-69.056 177.28H64l237.952-594.048h59.904z m-28.288 49.536h-2.496L205.44 582.272h252.928l-124.8-318.72zM810.944 460.224c99.52 0 154.368 93.376 154.368 187.84s-71.744 160-154.368 160c-82.56 0-170.944-27.776-170.944-160 0-132.288 71.424-187.84 170.944-187.84zM808.832 512c-70.4 0-118.848 33.856-118.848 120.064 0 84.608 23.104 127.552 113.536 127.552l5.312 0.064c85.12 0 107.392-76.672 107.392-127.616 0-51.008-36.992-120.064-107.392-120.064z" p-id="570"></path><path d="M64 64h896v64H64zM64 896h896v64H64zM640 214.016h49.856v594.048H640z" p-id="571"></path></svg>